<svg xmlns="http://www.w3.org/2000/svg" width="91" height="82" viewBox="0 0 91 82" fill="none">
  <path d="M17.8556 64.9044C18.3798 65.227 18.9625 65.4433 19.5703 65.5408C20.1782 65.6383 20.7993 65.6151 21.3981 65.4725C21.997 65.33 22.5619 65.0709 23.0607 64.71C23.5594 64.3491 23.9821 63.8935 24.3048 63.3692L41.1017 36.0489C41.4243 35.5246 41.6406 34.9419 41.7381 34.3341C41.8356 33.7263 41.8124 33.1052 41.6698 32.5063C41.5273 31.9074 41.2682 31.3425 40.9073 30.8438C40.5464 30.3451 40.0908 29.9223 39.5665 29.5997C38.1056 28.6996 36.877 27.4685 35.9799 26.0058C35.0828 24.5431 34.5424 22.8899 34.4024 21.1797C34.2625 19.4696 34.5268 17.7505 35.1741 16.1614C35.8215 14.5723 36.8336 13.1578 38.1287 12.0322C39.4238 10.9066 40.9655 10.1015 42.6293 9.68198C44.2931 9.26246 46.0323 9.24027 47.7063 9.61722C49.3802 9.99417 50.942 10.7597 52.2654 11.8519C53.5888 12.9441 54.6367 14.3323 55.3243 15.9043C55.5672 16.4732 55.9203 16.9883 56.3632 17.42C56.8061 17.8517 57.3301 18.1915 57.9049 18.4198C58.4798 18.6481 59.0941 18.7604 59.7125 18.7501C60.3309 18.7399 60.9412 18.6074 61.5082 18.3603C62.0752 18.1131 62.5877 17.7562 63.0161 17.3101C63.4445 16.864 63.7804 16.3375 64.0044 15.761C64.2284 15.1845 64.3361 14.5693 64.3213 13.951C64.3065 13.3327 64.1694 12.7234 63.9181 12.1583C62.7196 9.42393 60.9331 6.9874 58.6858 5.02209C56.4384 3.05678 53.7855 1.61101 50.9159 0.787689C48.0462 -0.0356306 45.0303 -0.216259 42.0829 0.258659C39.1354 0.733578 36.3289 1.85237 33.8631 3.53539C31.3973 5.21842 29.3327 7.42431 27.8165 9.99604C26.3002 12.5678 25.3695 15.4421 25.0905 18.4145C24.8115 21.3869 25.1912 24.3842 26.2025 27.1932C27.2138 30.0021 28.8319 32.5536 30.9415 34.6661L16.3048 58.4551C15.9828 58.9803 15.7675 59.5638 15.6711 60.1723C15.5748 60.7807 15.5993 61.4022 15.7434 62.0012C15.8874 62.6002 16.1481 63.1649 16.5105 63.663C16.8729 64.1611 17.33 64.583 17.8556 64.9044Z" fill="#5C5A5A"/>
  <path d="M70.3126 40.5997C68.1492 40.5988 65.9996 40.9443 63.9454 41.6231L49.3048 17.8262C48.6531 16.7674 47.6076 16.0109 46.3981 15.723C45.1886 15.4351 43.9144 15.6394 42.8556 16.2911C41.7968 16.9427 41.0402 17.9883 40.7523 19.1977C40.4644 20.4072 40.6688 21.6815 41.3204 22.7403L58.1173 50.0567C58.4399 50.5815 58.8629 51.0376 59.3619 51.3988C59.8609 51.76 60.4263 52.0193 61.0256 52.1619C61.6249 52.3045 62.2465 52.3275 62.8547 52.2297C63.463 52.1319 64.046 51.9151 64.5704 51.5919C66.01 50.7078 67.6349 50.1692 69.3176 50.0184C71.0002 49.8675 72.695 50.1085 74.2689 50.7225C75.8428 51.3365 77.2531 52.3067 78.3892 53.5571C79.5253 54.8074 80.3563 56.304 80.817 57.9294C81.2777 59.5548 81.3557 61.2648 81.0447 62.9254C80.7337 64.5859 80.0423 66.1519 79.0247 67.5004C78.0071 68.849 76.6909 69.9434 75.1793 70.698C73.6678 71.4526 72.002 71.8468 70.3126 71.8497C69.0694 71.8497 67.8771 72.3435 66.998 73.2226C66.1189 74.1017 65.6251 75.294 65.6251 76.5372C65.6251 77.7804 66.1189 78.9726 66.998 79.8517C67.8771 80.7308 69.0694 81.2247 70.3126 81.2247C75.6998 81.2247 80.8664 79.0846 84.6757 75.2753C88.485 71.4659 90.6251 66.2994 90.6251 60.9122C90.6251 55.525 88.485 50.3584 84.6757 46.5491C80.8664 42.7397 75.6998 40.5997 70.3126 40.5997Z" fill="#DE2E63"/>
  <path d="M40.0743 65.5997C38.9232 70.4415 36.0347 74.6922 31.9569 77.5451C27.879 80.3981 22.8957 81.6547 17.9527 81.0765C13.0097 80.4983 8.4509 78.1256 5.14157 74.4085C1.83225 70.6915 0.00267937 65.8889 8.55213e-05 60.9122C-0.012732 56.5132 1.41554 52.2312 4.06649 48.7208C4.42846 48.2088 4.88945 47.7748 5.42216 47.4442C5.95488 47.1136 6.5485 46.8932 7.16789 46.7961C7.78728 46.699 8.41986 46.7272 9.02818 46.8789C9.6365 47.0306 10.2082 47.3028 10.7094 47.6794C11.2107 48.056 11.6313 48.5293 11.9464 49.0714C12.2615 49.6134 12.4646 50.2131 12.5438 50.8351C12.623 51.457 12.5766 52.0885 12.4074 52.6922C12.2382 53.2959 11.9496 53.8595 11.5587 54.3497C10.1335 56.2399 9.36656 58.5449 9.37509 60.9122C9.37509 63.813 10.5274 66.595 12.5786 68.6461C14.6298 70.6973 17.4118 71.8497 20.3126 71.8497C23.2134 71.8497 25.9954 70.6973 28.0466 68.6461C30.0977 66.595 31.2501 63.813 31.2501 60.9122C31.2501 59.669 31.7439 58.4767 32.623 57.5976C33.5021 56.7185 34.6944 56.2247 35.9376 56.2247H70.3126C71.5558 56.2247 72.7481 56.7185 73.6271 57.5976C74.5062 58.4767 75.0001 59.669 75.0001 60.9122C75.0001 62.1554 74.5062 63.3476 73.6271 64.2267C72.7481 65.1058 71.5558 65.5997 70.3126 65.5997H40.0743Z" fill="#5C5A5A"/>
</svg>